<svg xmlns="http://www.w3.org/2000/svg" viewBox="0 0 550.45 136.43"><defs><style>.cls-1{fill:#444;}</style></defs><title>资源 1</title><g id="图层_2" data-name="图层 2"><g id="图层_1-2" data-name="图层 1"><path class="cls-1" d="M93,68.73a52.13,52.13,0,0,0,9.67-.42,33.13,33.13,0,0,1,9.37.55l2.27.33c.73.09,1.66.18,1.89.24a6,6,0,0,0,2.45-.15,13,13,0,0,1,3.47-.35h1.14c.09,0,.09,0,0,.13v.22l-.33,1.79-.35,1.7c-.16.53-.3,1-.43,1.56a14.84,14.84,0,0,0-.28,1.48c-.1.52-.16.89-.25,1.67a54.85,54.85,0,0,1-7,20.37,43.6,43.6,0,0,1-15.53,15.7,64.23,64.23,0,0,1-18.84,7.06,56.2,56.2,0,0,1-19.18.75,55,55,0,0,1-17.83-5.48A49.61,49.61,0,0,1,28.9,104.4,66,66,0,0,1,17.75,85.74a67.14,67.14,0,0,1-4.45-21,23.75,23.75,0,0,1,0-4.3L13.44,58l.44-2.54.42-2.65L15,50.15c.25-.89.43-1.82.74-2.71l1-2.65c2.58-7.11,6.61-13.31,8.55-17.63a90,90,0,0,0-9.69,15.69,62.92,62.92,0,0,0-5.31,17.7A55.79,55.79,0,0,1,25.86,23.46,62.51,62.51,0,0,1,62.6,4.88,64,64,0,0,0,6.52,72.08a63.77,63.77,0,0,0,3.91,19.36,73.68,73.68,0,0,0,9.62,17.91,74.33,74.33,0,0,0,14.82,14.82,66.88,66.88,0,0,1-18.78-16.56A65.73,65.73,0,0,1,10.8,34.77a67.19,67.19,0,0,1,38-30.63,74.49,74.49,0,0,1,24-3.45A79.49,79.49,0,0,1,96.25,4.88a139.14,139.14,0,0,1,13.52,5.5C95.26,2.44,78.59-1.46,62.15.5A70.26,70.26,0,0,0,18,22.36,67.38,67.38,0,0,0,5.83,95.66a68.3,68.3,0,0,0,14.9,21.46A69.15,69.15,0,0,0,112.27,121,71.35,71.35,0,0,0,130.9,99.84c1.22-2.09,2.25-4.32,3.35-6.5a72.16,72.16,0,0,0,2.67-6.83A35.55,35.55,0,0,0,138,83l.5-1.93c.23-.93.49-1.83.69-2.77.57-3.8.83-7.54,1.22-11.31s.43-7.58.63-11.35l.06-1.42c0-.42.27-1.15-.4-1l-2.76-.16-5.52-.29c-3.57-.29-7.64-.11-11.5-.1l-5.49.09-3.14.09c-14.83.49-41.28.82-46.92,7.68,4.75.23,10-.6,14.58-.14a42.62,42.62,0,0,1-5.75,1.81A30.81,30.81,0,0,0,80.08,62a7.77,7.77,0,0,0-3.66,1.49c2.35.17,5.67-.83,7.5-1.22C85,62,90,60.39,91.39,60.66,87.72,62,83,63.2,80.05,64.78c1.22,0,2.54,0,3.77.09-1.52.61-4.53.87-5.31,1.69,3.31-.18,6.06-.59,9.35-.59a48.12,48.12,0,0,0,7.59-.24c-3,.62-7.12,1.06-9.22,2.21a15.77,15.77,0,0,0,4.34,0,.71.71,0,0,0-.32.38c.65,0,1.49.15,2.16.1,0,.18.17.36,0,.56v-.4M88.54,55.66A79.83,79.83,0,0,1,99,55.83"/><path class="cls-1" d="M210.92,16.64H182a9,9,0,0,0-8.75,5.41h0a17.46,17.46,0,0,0-1.76,8.14h0V64.24h0a17.6,17.6,0,0,0,1.76,8.16h0A9,9,0,0,0,182,77.79h14.71V47.18H183.44V44.9h27V80.1h-32q-9.3,0-15.09-6.26h0q-5.72-6.33-5.71-16.45h0V37h0q0-10.12,5.71-16.45h0q5.79-6.24,15.09-6.24h32.51Zm55,42.35H231.35v5.32h0A14.38,14.38,0,0,0,234,72.92h0q3.5,5,10.37,5h21.49v2.29H239.11q-20.7,0-20.7-18.52h0V52.82h0q0-18.51,20.7-18.51h6q20.73,0,20.73,18.51h0ZM242.08,36.28h0a9.28,9.28,0,0,0-8.59,4.8h0a17.64,17.64,0,0,0-2.14,9.06h0v6.57H252.9V50.14h0a17.12,17.12,0,0,0-2.28-9.06h0a9.37,9.37,0,0,0-8.54-4.8ZM318.71,59H284.22v5.32h0a14.38,14.38,0,0,0,2.66,8.61h0c2.33,3.31,5.79,5,10.35,5h21.48v2.29H292q-20.73,0-20.73-18.52h0V52.82h0q0-18.51,20.73-18.51h6q20.7,0,20.7,18.51h0ZM295,36.28h0a9.32,9.32,0,0,0-8.61,4.8h0a17.73,17.73,0,0,0-2.12,9.06h0v6.57h21.55V50.14h0a17.12,17.12,0,0,0-2.28-9.06h0a9.37,9.37,0,0,0-8.54-4.8Zm58-2.14H368L351.56,51.81l15.6,28.57H354.22l-10.52-20-5.32,5.72V80.38h-13V14h13v36Zm71.67,46.1H410.36l-13.93-30.4h-8.92V80h-13V14.35h29.72q8.67,0,14.16,4.4h0A14.88,14.88,0,0,1,424.22,31h0q0,15-14.24,18h0Zm-37.08-63.6V47.55h7.7a15.29,15.29,0,0,0,11.27-4.33h0Q411,38.74,411,31.41h0a13.87,13.87,0,0,0-4.73-10.89h0a16.26,16.26,0,0,0-11-3.88h-7.7Zm58.57,17.74h16.47A13.63,13.63,0,0,1,473,38.73h0q4,4.34,4,11.41h0V64.31h0q0,7.08-4,11.43h0a13.63,13.63,0,0,1-10.49,4.36H446.08a13.43,13.43,0,0,1-10.43-4.36h0q-4-4.35-4-11.43h0V50.14h0q0-7.08,4-11.41h0a13.42,13.42,0,0,1,10.43-4.35ZM464,68.73v-23h0a9.38,9.38,0,0,0-2-6.1h0a8.73,8.73,0,0,0-7-3h-1.05a8.73,8.73,0,0,0-7,3h0a9.29,9.29,0,0,0-2.07,6.1h0v23h0a9.54,9.54,0,0,0,1.84,5.79h0q2.44,3.27,7.25,3.27h1.05a8.35,8.35,0,0,0,7.16-3.27h0a9.34,9.34,0,0,0,1.9-5.79Zm19.74,11.65V14h12.95V80.38ZM550.45,59H515.94v5.32h0a14.44,14.44,0,0,0,2.65,8.61h0q3.51,5,10.38,5h21.48v2.29H523.7Q503,80.17,503,61.65h0V52.82h0q0-18.51,20.71-18.51h6q20.73,0,20.73,18.51h0ZM526.69,36.28h0a9.32,9.32,0,0,0-8.61,4.8h0a17.64,17.64,0,0,0-2.14,9.06h0v6.57h21.55V50.14h0a17.12,17.12,0,0,0-2.28-9.06h0a9.35,9.35,0,0,0-8.52-4.8Z"/><rect class="cls-1" x="157.61" y="108.48" width="134.11" height="2.35"/><rect class="cls-1" x="416.35" y="108.48" width="134.11" height="2.35"/><path class="cls-1" d="M321.84,99.16h0q-.45,1.56-2,6.85h0l3.85-.12h0a34.37,34.37,0,0,1-3.85,10.92h0a15.09,15.09,0,0,0,5.41,2.78h0a12.07,12.07,0,0,0-2,2.3h0a31.11,31.11,0,0,1-4.85-3.41h0a47.63,47.63,0,0,1-5.51,3.86h0a7.22,7.22,0,0,0-2.42-1.88h0a17.05,17.05,0,0,0,6.61-3.53h0a28.66,28.66,0,0,1-3.08-7.84h0a18.6,18.6,0,0,1-5.41,12.36h0a8.52,8.52,0,0,0-2.42-1.53h0a11.48,11.48,0,0,0,4.72-6.4h0q1.35-4,1.11-12.36h0a19.79,19.79,0,0,0-2.09.1h-.66V99.07h0c1.61.06,3,.09,4.09.09h3c1.17,0,2.94-.07,5.29-.21h0Q321.93,99,321.84,99.16Zm-3,2h-4.52a43,43,0,0,0-.24,4.4h0c-.06,1.48-.09,2.51-.09,3.11h0l2.42-.35h0c.08.07.12.26.12.56h0a3,3,0,0,0,0,1.2h0a19.77,19.77,0,0,0,1.86,5.2h0a33.51,33.51,0,0,0,2.66-7.5h0l-4.09.11h0Q317.95,104.91,318.85,101.16ZM303.51,97.4h0c1.85.08,2.84.27,3,.56h0a2.74,2.74,0,0,1-.11.66h0a3.72,3.72,0,0,0-.33,1.44h0v3.08h0a18.48,18.48,0,0,0,3.08-.21h0v2.3h-.54q-1.23-.09-2.64-.09h0v4.19l1.65-.9h0a13.35,13.35,0,0,1,2.54,3.53h0l-1.88,1.23h0a13.66,13.66,0,0,0-2.31-3.44h0v8h0c0,1.32.07,2.79.22,4.4h-2.76c.14-1.53.21-3,.21-4.4h0v-8.94h0a29.19,29.19,0,0,1-3.2,7.3h0l-1.64-2h0q2.75-2.76,4.73-8.92h0q-2.52,0-3.63.09h0V103h0l3.86.12h0V100.5h0A27.22,27.22,0,0,0,303.51,97.4Zm35.2.12,2.75-.22h0a13.62,13.62,0,0,0,.45,1.86h0q.21.69.33,1h4.07c1.55,0,3.27-.08,5.17-.24h0q.12,0,.12.24h0a25.12,25.12,0,0,0,0,4.61h-2.87a17,17,0,0,0,.24-2.85H331.65q0,1.86.09,2.85H329a14.74,14.74,0,0,0,.12-4.73h0q0-.12.21-.12h0a34.29,34.29,0,0,0,4.3.24h6a10.52,10.52,0,0,0-.87-2.66Zm-2.33,5h0c1.77.44,2.66.77,2.66,1h0a2.9,2.9,0,0,1-.45.33h0q-.54.45-1.11,1h0q7.72,0,10.38-.21h0c.06,0,.09,0,.09.11h0v.1h0a17.63,17.63,0,0,1-5.38,5.53h0A31.14,31.14,0,0,0,353,112.08h0a1.26,1.26,0,0,0-.22.33h0a7.33,7.33,0,0,0-1.1,2.31h0c-1.26-.14-2.39-.33-3.41-.54h0a27.13,27.13,0,0,0-.12,3.41h0c0,.81,0,2,.12,3.43h0v1.2h-2.54q0-.54.09-1.53H335.18a7.33,7.33,0,0,0,.09,1.2h-2.52a18.94,18.94,0,0,0,.22-3.31h0a34.58,34.58,0,0,0-.22-4.4h0c-1.47.36-2.62.61-3.43.77h0a5.05,5.05,0,0,0-1.65-2.09h0a39.55,39.55,0,0,0,10.47-2.43h0c-.58-.45-1.65-1.45-3.2-3h0c-.28.29-.87.81-1.76,1.55h0l-.76.75h0l-2.11-1.43h0A19.1,19.1,0,0,0,336.38,102.48Zm7.83,4h-7.72a19.09,19.09,0,0,0,4.08,2.87h0A19.84,19.84,0,0,0,344.21,106.46Zm-3.86,5h0a56.6,56.6,0,0,1-7.17,2.64h0c.95.08,1.84.12,2.66.12h9.27c1,0,2,0,3-.12h0A38.22,38.22,0,0,1,340.35,111.42Zm5.51,4.4H335.18v3.44h10.68ZM364.28,97h0c2.06.58,3.05.94,3,1.1h0c0,.06-.15.21-.45.42h0a9.11,9.11,0,0,0-1.76,1.89h7.51c.65,0,1.53,0,2.63-.12h0c.66-.06,1.11-.09,1.34-.09h0c-1.11,1.31-2.37,2.78-3.76,4.4h2.66a29.78,29.78,0,0,0,3.74-.22h0a22.1,22.1,0,0,0-.21,3.53h0v12.45h0c.43,1-1,1.74-4.31,2.12h0a4.58,4.58,0,0,0-1.11-2.66h0q3.65.45,3.09-.9h0v-3.17h-6v3h0a23.53,23.53,0,0,0,.21,3.41h-2.75a20.64,20.64,0,0,0,.24-3.41h0v-3H363a10.38,10.38,0,0,1-3.32,6.49h0a5.75,5.75,0,0,0-2.87-1.1h0a6.75,6.75,0,0,0,3.31-4h0a10.58,10.58,0,0,0,.57-3h0c.06-1,.09-2.66.09-5.09h0c0-2.27,0-3.59-.09-4h0a32.34,32.34,0,0,1-2.78,2.64h0a6.22,6.22,0,0,0-2-1.77h0A18.6,18.6,0,0,0,364.28,97Zm8,5.17h-8.5a26.69,26.69,0,0,1-2.21,2.21h0a14.56,14.56,0,0,0,3,.22h5.72C370.83,103.92,371.5,103.11,372.24,102.15Zm-3.86,4.4H363v2.78h5.41Zm8.26,0h-6v2.78h6Zm-8.26,7.3v-2.66H363v2.66Zm8.26-2.66h-6v2.66h6Zm15.88-14.33h0c.22.08.59.19,1.1.33h0c1.48.36,2.18.62,2.1.77h0c0,.08-.07.15-.21.22h0a5.86,5.86,0,0,0-2.1,2h7.16a18.24,18.24,0,0,0,3.2-.24h0a39.94,39.94,0,0,1-4,5.2h3.74a10.52,10.52,0,0,0,3-.24h0c-.08.88-.12,1.77-.12,2.66h0v4h0a11.68,11.68,0,0,0,.22,3.2h-2.55l.12-1.32H390.66v4.85h0c-.16,1.11.57,1.63,2.19,1.55h11.36c1.56,0,2.4-1,2.54-3.08h0a5,5,0,0,0,2.54,1.53h0c-.73,2.35-2,3.49-3.85,3.43h-14c-2.19.06-3.18-.56-3-1.88h0V108.22h0a8.67,8.67,0,0,0-.24-2h0v-.42h0a21.94,21.94,0,0,0-1.76,1.76h0l-2.1-1.67h0A21.09,21.09,0,0,0,392.52,96.86Zm7.29,5.29h-8.07q-.42.45-1,1h0A18.26,18.26,0,0,1,389,104.9h.78a6.72,6.72,0,0,0,1.76.24h6a24.42,24.42,0,0,0,2-2.54h0A2.9,2.9,0,0,1,399.81,102.15Zm4.4,9.15v-4.18h-5.83v4.18Zm-8.16,0v-4.18h-5.39v4.18Z"/></g></g></svg>